solid Exported from Blender-2.78 (sub 0)
facet normal -0.102381 -0.943523 -0.315090
outer loop
vertex 0.000000 -0.688789 0.000000
vertex -0.292958 -0.585921 -0.212844
vertex 0.111898 -0.585921 -0.344391
endloop
endfacet
facet normal -0.700224 -0.661699 -0.268032
outer loop
vertex -0.498413 -0.308040 -0.362114
vertex -0.292958 -0.585921 -0.212844
vertex -0.585917 -0.362121 0.000000
endloop
endfacet
facet normal 0.268034 -0.943523 -0.194736
outer loop
vertex 0.000000 -0.688789 0.000000
vertex 0.111898 -0.585921 -0.344391
vertex 0.362117 -0.585919 0.000000
endloop
endfacet
facet normal 0.268034 -0.943523 0.194736
outer loop
vertex 0.000000 -0.688789 0.000000
vertex 0.362117 -0.585919 0.000000
vertex 0.111898 -0.585921 0.344391
endloop
endfacet
facet normal -0.102381 -0.943523 0.315090
outer loop
vertex 0.000000 -0.688789 0.000000
vertex 0.111898 -0.585921 0.344391
vertex -0.292958 -0.585921 0.212844
endloop
endfacet
facet normal -0.904989 -0.330385 -0.268031
outer loop
vertex -0.498413 -0.308040 -0.362114
vertex -0.585917 -0.362121 0.000000
vertex -0.655078 0.000000 -0.212844
endloop
endfacet
facet normal -0.024747 -0.330386 -0.943521
outer loop
vertex 0.190373 -0.308040 -0.585918
vertex -0.181061 -0.362122 -0.557238
vertex 0.000000 0.000000 -0.688789
endloop
endfacet
facet normal 0.889697 -0.330385 -0.315095
outer loop
vertex 0.616071 -0.308037 0.000000
vertex 0.474017 -0.362121 -0.344392
vertex 0.655078 0.000000 -0.212844
endloop
endfacet
facet normal 0.574602 -0.330388 0.748784
outer loop
vertex 0.190373 -0.308040 0.585918
vertex 0.474017 -0.362121 0.344392
vertex 0.404860 0.000000 0.557242
endloop
endfacet
facet normal -0.534576 -0.330387 0.777865
outer loop
vertex -0.498413 -0.308040 0.362114
vertex -0.181061 -0.362122 0.557238
vertex -0.404860 0.000000 0.557242
endloop
endfacet
facet normal -0.802609 -0.125627 -0.583126
outer loop
vertex -0.498413 -0.308040 -0.362114
vertex -0.655078 0.000000 -0.212844
vertex -0.404860 0.000000 -0.557242
endloop
endfacet
facet normal 0.306569 -0.125629 -0.943522
outer loop
vertex 0.190373 -0.308040 -0.585918
vertex 0.000000 0.000000 -0.688789
vertex 0.404860 0.000000 -0.557242
endloop
endfacet
facet normal 0.992077 -0.125628 0.000000
outer loop
vertex 0.616071 -0.308037 0.000000
vertex 0.655078 0.000000 -0.212844
vertex 0.655078 0.000000 0.212844
endloop
endfacet
facet normal 0.306569 -0.125629 0.943522
outer loop
vertex 0.190373 -0.308040 0.585918
vertex 0.404860 0.000000 0.557242
vertex 0.000000 0.000000 0.688789
endloop
endfacet
facet normal -0.802609 -0.125627 0.583126
outer loop
vertex -0.498413 -0.308040 0.362114
vertex -0.404860 0.000000 0.557242
vertex -0.655078 0.000000 0.212844
endloop
endfacet
facet normal -0.408946 0.661699 -0.628425
outer loop
vertex -0.190373 0.308040 -0.585918
vertex -0.474017 0.362121 -0.344392
vertex -0.111898 0.585921 -0.344391
endloop
endfacet
facet normal 0.471300 0.661699 -0.583122
outer loop
vertex 0.498413 0.308040 -0.362114
vertex 0.181061 0.362122 -0.557238
vertex 0.292958 0.585921 -0.212844
endloop
endfacet
facet normal 0.700224 0.661699 0.268032
outer loop
vertex 0.498413 0.308040 0.362114
vertex 0.585917 0.362121 0.000000
vertex 0.292958 0.585921 0.212844
endloop
endfacet
facet normal -0.038531 0.661699 0.748779
outer loop
vertex -0.190373 0.308040 0.585918
vertex 0.181061 0.362122 0.557238
vertex -0.111898 0.585921 0.344391
endloop
endfacet
facet normal -0.724042 0.661695 0.194736
outer loop
vertex -0.616071 0.308037 0.000000
vertex -0.474017 0.362121 0.344392
vertex -0.362117 0.585919 0.000000
endloop
endfacet
facet normal -0.268034 0.943523 0.194737
outer loop
vertex -0.362117 0.585919 0.000000
vertex -0.111898 0.585921 0.344391
vertex 0.000000 0.688789 0.000000
endloop
endfacet
facet normal -0.491119 0.794657 0.356821
outer loop
vertex -0.362117 0.585919 0.000000
vertex -0.474017 0.362121 0.344392
vertex -0.111898 0.585921 0.344391
endloop
endfacet
facet normal -0.408946 0.661699 0.628425
outer loop
vertex -0.474017 0.362121 0.344392
vertex -0.190373 0.308040 0.585918
vertex -0.111898 0.585921 0.344391
endloop
endfacet
facet normal 0.102381 0.943523 0.315090
outer loop
vertex -0.111898 0.585921 0.344391
vertex 0.292958 0.585921 0.212844
vertex 0.000000 0.688789 0.000000
endloop
endfacet
facet normal 0.187594 0.794658 0.577345
outer loop
vertex -0.111898 0.585921 0.344391
vertex 0.181061 0.362122 0.557238
vertex 0.292958 0.585921 0.212844
endloop
endfacet
facet normal 0.471300 0.661699 0.583122
outer loop
vertex 0.181061 0.362122 0.557238
vertex 0.498413 0.308040 0.362114
vertex 0.292958 0.585921 0.212844
endloop
endfacet
facet normal 0.331305 0.943524 0.000000
outer loop
vertex 0.292958 0.585921 0.212844
vertex 0.292958 0.585921 -0.212844
vertex 0.000000 0.688789 0.000000
endloop
endfacet
facet normal 0.607061 0.794656 0.000000
outer loop
vertex 0.292958 0.585921 0.212844
vertex 0.585917 0.362121 0.000000
vertex 0.292958 0.585921 -0.212844
endloop
endfacet
facet normal 0.700224 0.661699 -0.268032
outer loop
vertex 0.585917 0.362121 0.000000
vertex 0.498413 0.308040 -0.362114
vertex 0.292958 0.585921 -0.212844
endloop
endfacet
facet normal 0.102381 0.943523 -0.315090
outer loop
vertex 0.292958 0.585921 -0.212844
vertex -0.111898 0.585921 -0.344391
vertex 0.000000 0.688789 0.000000
endloop
endfacet
facet normal 0.187594 0.794658 -0.577345
outer loop
vertex 0.292958 0.585921 -0.212844
vertex 0.181061 0.362122 -0.557238
vertex -0.111898 0.585921 -0.344391
endloop
endfacet
facet normal -0.038531 0.661699 -0.748779
outer loop
vertex 0.181061 0.362122 -0.557238
vertex -0.190373 0.308040 -0.585918
vertex -0.111898 0.585921 -0.344391
endloop
endfacet
facet normal -0.268034 0.943523 -0.194737
outer loop
vertex -0.111898 0.585921 -0.344391
vertex -0.362117 0.585919 0.000000
vertex 0.000000 0.688789 0.000000
endloop
endfacet
facet normal -0.491119 0.794658 -0.356821
outer loop
vertex -0.111898 0.585921 -0.344391
vertex -0.474017 0.362121 -0.344392
vertex -0.362117 0.585919 0.000000
endloop
endfacet
facet normal -0.724042 0.661695 -0.194736
outer loop
vertex -0.474017 0.362121 -0.344392
vertex -0.616071 0.308037 0.000000
vertex -0.362117 0.585919 0.000000
endloop
endfacet
facet normal -0.889697 0.330385 0.315095
outer loop
vertex -0.655078 0.000000 0.212844
vertex -0.474017 0.362121 0.344392
vertex -0.616071 0.308037 0.000000
endloop
endfacet
facet normal -0.794656 0.187595 0.577348
outer loop
vertex -0.655078 0.000000 0.212844
vertex -0.404860 0.000000 0.557242
vertex -0.474017 0.362121 0.344392
endloop
endfacet
facet normal -0.574602 0.330388 0.748784
outer loop
vertex -0.404860 0.000000 0.557242
vertex -0.190373 0.308040 0.585918
vertex -0.474017 0.362121 0.344392
endloop
endfacet
facet normal 0.024747 0.330386 0.943521
outer loop
vertex 0.000000 0.000000 0.688789
vertex 0.181061 0.362122 0.557238
vertex -0.190373 0.308040 0.585918
endloop
endfacet
facet normal 0.303531 0.187597 0.934172
outer loop
vertex 0.000000 0.000000 0.688789
vertex 0.404860 0.000000 0.557242
vertex 0.181061 0.362122 0.557238
endloop
endfacet
facet normal 0.534576 0.330387 0.777865
outer loop
vertex 0.404860 0.000000 0.557242
vertex 0.498413 0.308040 0.362114
vertex 0.181061 0.362122 0.557238
endloop
endfacet
facet normal 0.904989 0.330385 0.268031
outer loop
vertex 0.655078 0.000000 0.212844
vertex 0.585917 0.362121 0.000000
vertex 0.498413 0.308040 0.362114
endloop
endfacet
facet normal 0.982246 0.187598 0.000000
outer loop
vertex 0.655078 0.000000 0.212844
vertex 0.655078 0.000000 -0.212844
vertex 0.585917 0.362121 0.000000
endloop
endfacet
facet normal 0.904989 0.330385 -0.268031
outer loop
vertex 0.655078 0.000000 -0.212844
vertex 0.498413 0.308040 -0.362114
vertex 0.585917 0.362121 0.000000
endloop
endfacet
facet normal 0.534576 0.330387 -0.777865
outer loop
vertex 0.404860 0.000000 -0.557242
vertex 0.181061 0.362122 -0.557238
vertex 0.498413 0.308040 -0.362114
endloop
endfacet
facet normal 0.303531 0.187597 -0.934172
outer loop
vertex 0.404860 0.000000 -0.557242
vertex 0.000000 0.000000 -0.688789
vertex 0.181061 0.362122 -0.557238
endloop
endfacet
facet normal 0.024747 0.330386 -0.943521
outer loop
vertex 0.000000 0.000000 -0.688789
vertex -0.190373 0.308040 -0.585918
vertex 0.181061 0.362122 -0.557238
endloop
endfacet
facet normal -0.574602 0.330388 -0.748784
outer loop
vertex -0.404860 0.000000 -0.557242
vertex -0.474017 0.362121 -0.344392
vertex -0.190373 0.308040 -0.585918
endloop
endfacet
facet normal -0.794656 0.187595 -0.577348
outer loop
vertex -0.404860 0.000000 -0.557242
vertex -0.655078 0.000000 -0.212844
vertex -0.474017 0.362121 -0.344392
endloop
endfacet
facet normal -0.889697 0.330385 -0.315095
outer loop
vertex -0.655078 0.000000 -0.212844
vertex -0.616071 0.308037 0.000000
vertex -0.474017 0.362121 -0.344392
endloop
endfacet
facet normal -0.306569 0.125629 0.943522
outer loop
vertex -0.404860 0.000000 0.557242
vertex 0.000000 0.000000 0.688789
vertex -0.190373 0.308040 0.585918
endloop
endfacet
facet normal -0.303531 -0.187597 0.934172
outer loop
vertex -0.404860 0.000000 0.557242
vertex -0.181061 -0.362122 0.557238
vertex 0.000000 0.000000 0.688789
endloop
endfacet
facet normal -0.024747 -0.330386 0.943521
outer loop
vertex -0.181061 -0.362122 0.557238
vertex 0.190373 -0.308040 0.585918
vertex 0.000000 0.000000 0.688789
endloop
endfacet
facet normal 0.802609 0.125627 0.583126
outer loop
vertex 0.404860 0.000000 0.557242
vertex 0.655078 0.000000 0.212844
vertex 0.498413 0.308040 0.362114
endloop
endfacet
facet normal 0.794656 -0.187595 0.577348
outer loop
vertex 0.404860 0.000000 0.557242
vertex 0.474017 -0.362121 0.344392
vertex 0.655078 0.000000 0.212844
endloop
endfacet
facet normal 0.889697 -0.330385 0.315095
outer loop
vertex 0.474017 -0.362121 0.344392
vertex 0.616071 -0.308037 0.000000
vertex 0.655078 0.000000 0.212844
endloop
endfacet
facet normal 0.802609 0.125627 -0.583126
outer loop
vertex 0.655078 0.000000 -0.212844
vertex 0.404860 0.000000 -0.557242
vertex 0.498413 0.308040 -0.362114
endloop
endfacet
facet normal 0.794656 -0.187595 -0.577348
outer loop
vertex 0.655078 0.000000 -0.212844
vertex 0.474017 -0.362121 -0.344392
vertex 0.404860 0.000000 -0.557242
endloop
endfacet
facet normal 0.574602 -0.330388 -0.748784
outer loop
vertex 0.474017 -0.362121 -0.344392
vertex 0.190373 -0.308040 -0.585918
vertex 0.404860 0.000000 -0.557242
endloop
endfacet
facet normal -0.306569 0.125629 -0.943522
outer loop
vertex 0.000000 0.000000 -0.688789
vertex -0.404860 0.000000 -0.557242
vertex -0.190373 0.308040 -0.585918
endloop
endfacet
facet normal -0.303531 -0.187597 -0.934172
outer loop
vertex 0.000000 0.000000 -0.688789
vertex -0.181061 -0.362122 -0.557238
vertex -0.404860 0.000000 -0.557242
endloop
endfacet
facet normal -0.534576 -0.330387 -0.777865
outer loop
vertex -0.181061 -0.362122 -0.557238
vertex -0.498413 -0.308040 -0.362114
vertex -0.404860 0.000000 -0.557242
endloop
endfacet
facet normal -0.992077 0.125628 0.000000
outer loop
vertex -0.655078 0.000000 -0.212844
vertex -0.655078 0.000000 0.212844
vertex -0.616071 0.308037 0.000000
endloop
endfacet
facet normal -0.982246 -0.187598 0.000000
outer loop
vertex -0.655078 0.000000 -0.212844
vertex -0.585917 -0.362121 0.000000
vertex -0.655078 0.000000 0.212844
endloop
endfacet
facet normal -0.904989 -0.330385 0.268031
outer loop
vertex -0.585917 -0.362121 0.000000
vertex -0.498413 -0.308040 0.362114
vertex -0.655078 0.000000 0.212844
endloop
endfacet
facet normal -0.471300 -0.661699 0.583122
outer loop
vertex -0.292958 -0.585921 0.212844
vertex -0.181061 -0.362122 0.557238
vertex -0.498413 -0.308040 0.362114
endloop
endfacet
facet normal -0.187594 -0.794658 0.577345
outer loop
vertex -0.292958 -0.585921 0.212844
vertex 0.111898 -0.585921 0.344391
vertex -0.181061 -0.362122 0.557238
endloop
endfacet
facet normal 0.038530 -0.661699 0.748779
outer loop
vertex 0.111898 -0.585921 0.344391
vertex 0.190373 -0.308040 0.585918
vertex -0.181061 -0.362122 0.557238
endloop
endfacet
facet normal 0.408946 -0.661699 0.628425
outer loop
vertex 0.111898 -0.585921 0.344391
vertex 0.474017 -0.362121 0.344392
vertex 0.190373 -0.308040 0.585918
endloop
endfacet
facet normal 0.491119 -0.794658 0.356821
outer loop
vertex 0.111898 -0.585921 0.344391
vertex 0.362117 -0.585919 0.000000
vertex 0.474017 -0.362121 0.344392
endloop
endfacet
facet normal 0.724042 -0.661695 0.194736
outer loop
vertex 0.362117 -0.585919 0.000000
vertex 0.616071 -0.308037 0.000000
vertex 0.474017 -0.362121 0.344392
endloop
endfacet
facet normal 0.724042 -0.661695 -0.194736
outer loop
vertex 0.362117 -0.585919 0.000000
vertex 0.474017 -0.362121 -0.344392
vertex 0.616071 -0.308037 0.000000
endloop
endfacet
facet normal 0.491119 -0.794657 -0.356821
outer loop
vertex 0.362117 -0.585919 0.000000
vertex 0.111898 -0.585921 -0.344391
vertex 0.474017 -0.362121 -0.344392
endloop
endfacet
facet normal 0.408946 -0.661699 -0.628425
outer loop
vertex 0.111898 -0.585921 -0.344391
vertex 0.190373 -0.308040 -0.585918
vertex 0.474017 -0.362121 -0.344392
endloop
endfacet
facet normal -0.700224 -0.661699 0.268032
outer loop
vertex -0.585917 -0.362121 0.000000
vertex -0.292958 -0.585921 0.212844
vertex -0.498413 -0.308040 0.362114
endloop
endfacet
facet normal -0.607061 -0.794656 0.000000
outer loop
vertex -0.585917 -0.362121 0.000000
vertex -0.292958 -0.585921 -0.212844
vertex -0.292958 -0.585921 0.212844
endloop
endfacet
facet normal -0.331305 -0.943524 0.000000
outer loop
vertex -0.292958 -0.585921 -0.212844
vertex 0.000000 -0.688789 0.000000
vertex -0.292958 -0.585921 0.212844
endloop
endfacet
facet normal 0.038530 -0.661699 -0.748779
outer loop
vertex 0.111898 -0.585921 -0.344391
vertex -0.181061 -0.362122 -0.557238
vertex 0.190373 -0.308040 -0.585918
endloop
endfacet
facet normal -0.187594 -0.794658 -0.577345
outer loop
vertex 0.111898 -0.585921 -0.344391
vertex -0.292958 -0.585921 -0.212844
vertex -0.181061 -0.362122 -0.557238
endloop
endfacet
facet normal -0.471300 -0.661699 -0.583122
outer loop
vertex -0.292958 -0.585921 -0.212844
vertex -0.498413 -0.308040 -0.362114
vertex -0.181061 -0.362122 -0.557238
endloop
endfacet
endsolid Exported from Blender-2.78 (sub 0)
